<svg width="158" height="63" viewBox="0 0 158 63" fill="none" xmlns="http://www.w3.org/2000/svg">
<g clip-path="url(#clip0_18_150)">
<path d="M81.5724 20.8669L89.0894 20.3451C89.2609 21.6647 89.5752 22.6466 90.0897 23.3525C90.9186 24.4572 92.0619 25.0095 93.5767 25.0095C94.6914 25.0095 95.5774 24.7334 96.1776 24.1503C96.7493 23.69 97.0923 22.9536 97.0923 22.1863C97.0923 21.4499 96.7779 20.7441 96.2348 20.2838C95.6631 19.7314 94.3199 19.1791 92.2047 18.6881C88.7464 17.8595 86.2597 16.7548 84.8021 15.3432C83.3444 14.0237 82.5155 12.0904 82.5727 10.0344C82.5727 8.62281 82.9729 7.21121 83.7159 6.04511C84.5735 4.72558 85.7453 3.68223 87.1459 3.09918C88.6606 2.39338 90.7757 2.02515 93.4338 2.02515C96.6922 2.02515 99.1788 2.66956 100.894 3.98909C102.609 5.27794 103.637 7.36465 103.952 10.2185L96.5206 10.6788C96.3205 9.45135 95.9204 8.56144 95.263 7.97838C94.6056 7.39533 93.7482 7.11916 92.6335 7.11916C91.7189 7.11916 91.0329 7.33396 90.5757 7.73288C90.1469 8.10113 89.8611 8.65349 89.8897 9.26723C89.8897 9.72753 90.1183 10.1571 90.4614 10.4333C90.8329 10.8016 91.7189 11.1391 93.1195 11.446C96.5777 12.2439 99.0358 13.0417 100.551 13.8702C102.065 14.6988 103.152 15.7115 103.809 16.9082C104.495 18.1357 104.838 19.5473 104.809 20.9896C104.809 22.708 104.352 24.4265 103.437 25.8688C102.494 27.3724 101.179 28.5385 99.636 29.2443C98.0069 30.0116 95.949 30.4104 93.491 30.4104C89.1466 30.4104 86.1454 29.5206 84.4591 27.71C82.7729 25.8995 81.7724 23.6286 81.5724 20.8669ZM1.80065 29.9501V2.51613H14.9768C17.4063 2.51613 19.2926 2.73094 20.5789 3.19124C21.8364 3.62086 22.9512 4.51077 23.6943 5.70756C24.5232 7.02708 24.9233 8.56144 24.8947 10.1571C24.9805 12.8576 23.6943 15.4353 21.4935 16.7855C20.636 17.3072 19.6928 17.6754 18.7211 17.8595C19.4356 18.0744 20.1501 18.4425 20.7789 18.8723C21.2649 19.3018 21.665 19.7928 22.0366 20.3144C22.4653 20.8361 22.8369 21.4192 23.1512 22.0329L26.9811 29.9809H18.0065L13.7764 21.542C13.2333 20.4679 12.7761 19.7621 12.3473 19.4246C11.7757 18.995 11.0897 18.7801 10.4038 18.7801H9.7178V29.9194H1.80065V29.9501ZM9.7178 13.6247H13.0618C13.7764 13.5633 14.4624 13.4406 15.1484 13.2565C15.6628 13.1645 16.1201 12.8576 16.4345 12.3973C17.2062 11.2926 17.0919 9.72753 16.1487 8.77624C15.6342 8.31593 14.6339 8.07044 13.2047 8.07044H9.7178V13.6247ZM0 53.4562L7.51701 52.9345C7.6885 54.2541 8.00289 55.2361 8.51736 55.9418C9.31766 57.0466 10.4895 57.6296 12.0043 57.6296C13.119 57.6296 14.005 57.3534 14.6053 56.7704C15.177 56.2794 15.5199 55.5736 15.5199 54.8064C15.5199 54.07 15.2055 53.3641 14.6624 52.9038C14.0908 52.3515 12.7475 51.7991 10.6038 51.3082C7.14544 50.4796 4.65883 49.3749 3.20116 47.9633C1.74348 46.6437 0.914617 44.7105 0.97178 42.6545C0.97178 41.2429 1.37193 39.8313 2.11505 38.6651C2.97251 37.3457 4.14435 36.3022 5.54487 35.7192C7.05969 35.0135 9.17475 34.6452 11.8328 34.6452C15.0912 34.6452 17.5777 35.2897 19.2926 36.6091C21.0077 37.9287 22.008 39.9847 22.3224 42.8386L14.8911 43.2989C14.691 42.0715 14.2909 41.1815 13.6335 40.5985C13.0047 40.0154 12.1187 39.7392 11.004 39.7699C10.0894 39.7699 9.40341 39.9847 8.94609 40.4143C8.48879 40.7826 8.23155 41.3349 8.26013 41.9486C8.26013 42.4089 8.48879 42.8386 8.83177 43.1148C9.20333 43.4831 10.0894 43.8205 11.4899 44.1274C14.9482 44.9252 17.4063 45.7231 18.9211 46.5517C20.436 47.3803 21.5221 48.3929 22.1795 49.5897C22.8655 50.8172 23.2084 52.2288 23.2084 53.6404C23.2084 55.3588 22.7226 57.0466 21.8364 58.4889C20.8932 59.9925 19.5785 61.1586 18.0351 61.8644C16.4059 62.6315 14.3481 63.0305 11.89 63.0305C7.54559 63.0305 4.5445 62.1406 2.85817 60.3301C1.17185 58.4889 0.228655 56.218 0 53.4562Z" fill="white"/>
<path d="M38.0139 51.3082L44.9305 53.5483C44.559 55.4202 43.7873 57.2 42.7298 58.7651C41.758 60.146 40.4718 61.22 39.0142 61.9258C37.5279 62.6316 35.6415 62.9999 33.355 62.9999C30.5826 62.9999 28.296 62.5703 26.5525 61.711C24.7804 60.8518 23.2656 59.3174 21.9795 57.1386C20.6932 54.9599 20.0645 52.1674 20.0645 48.7612C20.0645 44.2196 21.1792 40.7212 23.4372 38.297C25.695 35.8727 28.8677 34.6453 32.9833 34.6453C36.2131 34.6453 38.7283 35.351 40.5861 36.732C42.4153 38.1436 43.7873 40.2916 44.7019 43.1761L37.728 44.8333C37.5565 44.1888 37.2993 43.5444 36.9563 42.9921C36.5276 42.3477 35.9845 41.8567 35.3271 41.4884C34.6698 41.1202 33.9266 40.9668 33.1835 40.9668C31.3829 40.9668 30.0109 41.7339 29.0677 43.299C28.3531 44.4343 27.9816 46.2449 27.9816 48.6998C27.9816 51.7378 28.4103 53.8244 29.2678 54.9599C30.1252 56.0953 31.3257 56.6476 32.8976 56.6476C34.4125 56.6476 35.5558 56.1873 36.3274 55.2975C37.0991 54.3462 37.6708 53.0267 38.0139 51.3082ZM54.1625 35.1056H62.051V44.7106H70.6827V35.1056H78.6285V62.5396H70.6827V51.431H62.051V62.5396H54.1625V35.1056Z" fill="white"/>
<path d="M77.5425 48.8224C77.5425 44.3422 78.7143 40.8439 81.0295 38.3583C83.3447 35.8727 86.6029 34.6145 90.7473 34.6145C95.006 34.6145 98.2643 35.842 100.579 38.297C102.895 40.7519 104.038 44.1888 104.038 48.6077C104.038 51.8298 103.523 54.4382 102.523 56.4941C101.551 58.5196 100.036 60.1766 98.1786 61.2814C96.2636 62.4168 93.8913 62.9998 91.0616 62.9998C88.1749 62.9998 85.8026 62.5088 83.9162 61.5268C81.9727 60.4835 80.3721 58.857 79.3146 56.8624C78.1428 54.7144 77.5425 52.0446 77.5425 48.8224ZM85.4311 48.8532C85.4311 51.6151 85.917 53.6097 86.8602 54.8371C87.8034 56.0338 89.1181 56.6476 90.7758 56.6476C92.4622 56.6476 93.777 56.0646 94.7202 54.8678C95.6634 53.671 96.1206 51.5536 96.1206 48.485C96.1206 45.9073 95.6348 44.0047 94.663 42.8386C93.6912 41.6418 92.3764 41.0587 90.7187 41.0587C89.261 40.9973 87.8605 41.6725 86.8888 42.8692C85.917 44.0661 85.4311 46.0607 85.4311 48.8532ZM112.126 48.8224C112.126 44.3422 113.298 40.8439 115.613 38.3583C117.929 35.8727 121.187 34.6145 125.331 34.6145C129.59 34.6145 132.877 35.842 135.163 38.297C137.449 40.7519 138.621 44.1888 138.621 48.6077C138.621 51.8298 138.108 54.4382 137.107 56.4941C136.135 58.5196 134.62 60.1766 132.762 61.2814C130.848 62.4168 128.476 62.9998 125.646 62.9998C122.759 62.9998 120.387 62.5088 118.5 61.5268C116.557 60.4835 114.956 58.857 113.899 56.8624C112.727 54.7144 112.126 52.0446 112.126 48.8224ZM120.016 48.8532C120.016 51.6151 120.501 53.6097 121.445 54.8371C122.387 56.0338 123.702 56.6476 125.36 56.6476C127.047 56.6476 128.361 56.0646 129.304 54.8678C130.247 53.671 130.704 51.5536 130.704 48.485C130.704 45.9073 130.218 44.0047 129.247 42.8386C128.275 41.6418 126.96 41.0587 125.303 41.0587C123.845 40.9973 122.415 41.6725 121.472 42.8692C120.501 44.0661 120.016 46.0607 120.016 48.8532Z" fill="white"/>
<path d="M137.793 35.1057H145.681V55.7886H158V62.5397H137.764V35.1057H137.793Z" fill="white"/>
<path d="M129.098 33.5223C137.04 27.0965 139.489 16.2037 134.568 9.19259C129.648 2.18146 119.219 1.70698 111.277 8.13279C103.335 14.5586 100.886 25.4514 105.807 32.4626C110.728 39.4737 121.156 39.9481 129.098 33.5223Z" fill="#2D3047"/>
<path d="M85.5522 17.3504L126.594 -15.8555L154.993 24.606L113.952 57.8119L85.5522 17.3504Z" fill="#2D3047"/>
<path d="M129.098 33.5223C137.04 27.0965 139.489 16.2037 134.568 9.19259C129.648 2.18146 119.219 1.70698 111.277 8.13279C103.335 14.5586 100.886 25.4514 105.807 32.4626C110.728 39.4737 121.156 39.9481 129.098 33.5223Z" fill="#2D3047"/>
<path d="M96.981 20.0522L125.719 -3.19873L143.557 22.2156L114.818 45.4665L96.981 20.0522Z" fill="#2D3047"/>
<path d="M129.098 33.5223C137.04 27.0965 139.489 16.2037 134.568 9.19259C129.648 2.18146 119.219 1.70698 111.277 8.13279C103.335 14.5586 100.886 25.4514 105.807 32.4626C110.728 39.4737 121.156 39.9481 129.098 33.5223Z" fill="#2D3047" stroke="white" stroke-width="4" stroke-miterlimit="10"/>
<path d="M96.981 20.0522L125.719 -3.19873L143.557 22.2156L114.818 45.4665L96.981 20.0522Z" stroke="white" stroke-width="4" stroke-miterlimit="10"/>
<path d="M129.098 33.5223C137.04 27.0965 139.489 16.2037 134.568 9.19259C129.648 2.18146 119.219 1.70698 111.277 8.13279C103.335 14.5586 100.886 25.4514 105.807 32.4626C110.728 39.4737 121.156 39.9481 129.098 33.5223Z" stroke="white" stroke-width="4" stroke-miterlimit="10"/>
<path d="M96.981 20.0522L125.719 -3.19873L143.557 22.2156L114.818 45.4665L96.981 20.0522Z" fill="#2D3047"/>
<path d="M129.098 33.5223C137.04 27.0965 139.489 16.2037 134.568 9.19259C129.648 2.18146 119.219 1.70698 111.277 8.13279C103.335 14.5586 100.886 25.4514 105.807 32.4626C110.728 39.4737 121.156 39.9481 129.098 33.5223Z" fill="#2D3047" stroke="white" stroke-width="4" stroke-miterlimit="10"/>
<path d="M96.981 20.0522L125.719 -3.19873L143.557 22.2156L114.818 45.4665L96.981 20.0522Z" stroke="white" stroke-width="4" stroke-miterlimit="10"/>
<path d="M85.5522 17.3504L126.594 -15.8555L154.993 24.606L113.952 57.8119L85.5522 17.3504Z" stroke="white" stroke-width="4" stroke-miterlimit="10"/>
<path d="M129.098 33.5223C137.04 27.0965 139.489 16.2037 134.568 9.19259C129.648 2.18146 119.219 1.70698 111.277 8.13279C103.335 14.5586 100.886 25.4514 105.807 32.4626C110.728 39.4737 121.156 39.9481 129.098 33.5223Z" stroke="white" stroke-width="4" stroke-miterlimit="10"/>
<path d="M112.155 18.811L115.013 16.663L118.529 22.0331C119.129 22.8923 119.586 23.8129 119.929 24.8257C120.129 25.5928 120.072 26.4213 119.787 27.1578C119.415 28.0784 118.815 28.8456 118.014 29.3979C117.071 30.1037 116.271 30.5026 115.585 30.6255C114.927 30.7482 114.241 30.6255 113.613 30.3186C112.927 29.9503 112.327 29.4286 111.869 28.7536L114.327 26.2985C114.527 26.6361 114.784 26.943 115.07 27.1886C115.27 27.342 115.499 27.434 115.756 27.434C115.956 27.434 116.156 27.342 116.299 27.2191C116.585 27.035 116.785 26.6668 116.757 26.2985C116.671 25.777 116.471 25.2552 116.156 24.8562L112.155 18.811ZM120.73 22.2172L123.33 20.0077C123.616 20.376 123.988 20.6522 124.388 20.8056C124.96 20.9897 125.56 20.867 126.046 20.468C126.388 20.2226 126.674 19.885 126.789 19.4554C126.96 18.903 126.674 18.2893 126.16 18.1051C126.075 18.0746 125.988 18.0438 125.903 18.0438C125.56 18.0131 124.96 18.1666 124.073 18.5656C122.615 19.2099 121.472 19.4554 120.615 19.3633C119.787 19.2713 119.015 18.811 118.557 18.0438C118.214 17.5221 118.043 16.9084 118.014 16.2947C118.014 15.5889 118.186 14.8831 118.557 14.3001C119.1 13.4715 119.758 12.7657 120.558 12.2133C121.758 11.3234 122.816 10.8938 123.731 10.8938C124.645 10.8938 125.502 11.3541 126.303 12.3054L123.731 14.4842C123.216 13.7783 122.244 13.6249 121.587 14.1773L121.501 14.2694C121.215 14.4535 121.015 14.7296 120.901 15.0672C120.815 15.3127 120.873 15.5889 121.015 15.8037C121.13 15.9571 121.301 16.0798 121.501 16.0798C121.73 16.1105 122.131 15.9878 122.701 15.7117C124.131 15.0672 125.216 14.6989 125.96 14.5762C126.589 14.4535 127.246 14.5148 127.846 14.7911C128.389 15.0365 128.847 15.4661 129.162 15.9878C129.561 16.6015 129.79 17.338 129.819 18.1051C129.847 18.903 129.647 19.6702 129.247 20.3453C128.732 21.1739 128.075 21.8796 127.304 22.4321C125.731 23.5981 124.445 24.0891 123.416 23.9049C122.302 23.7209 121.387 23.1072 120.73 22.2172Z" fill="white"/>
</g>
<defs>
<clipPath id="clip0_18_150">
<rect width="158" height="63" fill="white"/>
</clipPath>
</defs>
</svg>
