<svg width="24" height="24" viewBox="0 0 24 24" fill="none" xmlns="http://www.w3.org/2000/svg">
<path fill-rule="evenodd" clip-rule="evenodd" d="M20 24H0V2H3C4.229 2 5.18 0.916 6 0H14C14.82 0.916 15.771 2 17 2H20V11H18V4H14L12 6H8.102L6 4H2V22H18V17H20V24ZM10 20H4V19H10V20ZM10 18H4V17H10V18ZM16 13H24V15H16V18L11 14L16 10V13ZM10 16H4V15H10V16ZM10 14H4V13H10V14ZM10 12H4V11H10V12ZM10 10H4V9H10V10ZM9 3C9 3.552 9.448 4 10 4C10.552 4 11 3.552 11 3C11 2.448 10.552 2 10 2C9.448 2 9 2.448 9 3Z" fill="#E0E0E0"/>
</svg>
